<?xml version="1.0" encoding="UTF-8"?>
<svg id="Layer_1" xmlns="http://www.w3.org/2000/svg" version="1.1" viewBox="0 0 326.43 46.22">
  <!-- Generator: Adobe Illustrator 29.8.2, SVG Export Plug-In . SVG Version: 2.1.1 Build 3)  -->
  <path d="M10.88,10.3c1.41-.85,3.02-1.27,4.83-1.27,1.69,0,3.18.37,4.47,1.11.94.54,1.71,1.28,2.35,2.21l4.47-4.47c-.64-.65-1.34-1.25-2.12-1.79-2.61-1.78-5.65-2.67-9.12-2.67-2.97,0-5.64.67-8.03,2.02-2.39,1.35-4.27,3.23-5.65,5.65-1.38,2.42-2.07,5.15-2.07,8.21s.69,5.78,2.07,8.18c1.38,2.4,3.26,4.28,5.65,5.63,2.39,1.35,5.06,2.02,8.03,2.02,3.5,0,6.55-.88,9.14-2.65.62-.42,1.19-.89,1.73-1.39l-4.44-4.44c-.57.72-1.23,1.32-2,1.78-1.29.76-2.78,1.13-4.47,1.13-1.81,0-3.42-.42-4.83-1.27-1.41-.84-2.51-2.05-3.29-3.6-.79-1.56-1.18-3.36-1.18-5.4s.39-3.88,1.18-5.43c.79-1.54,1.88-2.74,3.29-3.58Z"/>
  <path d="M46,23.8c0,1.96-.49,3.46-1.47,4.52-.98,1.05-2.33,1.58-4.05,1.58s-3.02-.53-4-1.58c-.98-1.05-1.47-2.56-1.47-4.52v-13.57h-6.23v14.46c0,2.2.42,4.09,1.27,5.67.85,1.59,2.01,2.79,3.49,3.6,1.48.82,3.19,1.22,5.12,1.22,1.51,0,2.91-.3,4.2-.91,1.29-.61,2.34-1.45,3.14-2.51v3.11h6.27V10.23h-6.27v13.57Z"/>
  <path d="M63.97,14.06v-3.83h-6.23v24.64h6.23v-12.28c0-2.28.5-3.88,1.49-4.8.99-.92,2.47-1.38,4.43-1.38h1.65v-6.54c-1.66,0-3.14.37-4.43,1.11-1.29.74-2.34,1.76-3.14,3.07Z"/>
  <path d="M78.21,0c-1.1,0-2.01.35-2.74,1.04-.73.7-1.09,1.56-1.09,2.6s.36,1.91,1.09,2.6c.73.7,1.64,1.05,2.74,1.05s2.01-.35,2.74-1.05c.73-.7,1.09-1.56,1.09-2.6s-.36-1.91-1.09-2.6c-.73-.7-1.64-1.04-2.74-1.04Z"/>
  <rect x="75.05" y="10.23" width="6.23" height="24.64"/>
  <path d="M104.32,11.41c-1.93-1.05-4.08-1.58-6.45-1.58s-4.52.53-6.45,1.58c-1.93,1.05-3.45,2.54-4.56,4.47-1.11,1.93-1.67,4.15-1.67,6.67s.54,4.75,1.62,6.67c1.08,1.93,2.57,3.42,4.47,4.47,1.9,1.05,4.03,1.58,6.41,1.58s4.57-.53,6.52-1.58c1.94-1.05,3.48-2.54,4.63-4.47,1.14-1.93,1.71-4.15,1.71-6.67s-.56-4.74-1.67-6.67c-1.11-1.93-2.63-3.42-4.56-4.47ZM103.25,26.56c-.59,1.1-1.39,1.92-2.38,2.47-.99.55-2.05.82-3.18.82-1.78,0-3.26-.63-4.43-1.89-1.17-1.26-1.76-3.06-1.76-5.4s.6-4.14,1.8-5.4c1.2-1.26,2.69-1.89,4.47-1.89s3.28.63,4.52,1.89c1.23,1.26,1.85,3.06,1.85,5.4,0,1.57-.3,2.91-.89,4Z"/>
  <path d="M129.28,21.71c-1.16-.47-2.62-.93-4.4-1.38-1.75-.44-3.04-.88-3.87-1.31-.83-.43-1.25-1.06-1.25-1.89,0-.74.3-1.32.91-1.74.61-.41,1.48-.62,2.6-.62,1.22,0,2.19.29,2.91.87.73.58,1.13,1.36,1.22,2.34h5.96c-.18-2.49-1.14-4.47-2.89-5.94-1.75-1.47-4.09-2.2-7.03-2.2-1.99,0-3.71.33-5.18.98-1.47.65-2.59,1.54-3.38,2.67-.79,1.13-1.18,2.37-1.18,3.74,0,1.66.42,2.98,1.27,3.96.85.98,1.85,1.71,3.03,2.18,1.17.47,2.68.93,4.51,1.38,1.78.47,3.08.91,3.89,1.31.82.4,1.22,1,1.22,1.8,0,.74-.33,1.35-1,1.82-.67.48-1.59.71-2.78.71s-2.23-.31-3.05-.93-1.28-1.41-1.4-2.36h-6.27c.09,1.51.6,2.89,1.53,4.14.93,1.25,2.2,2.23,3.8,2.96,1.6.73,3.41,1.09,5.43,1.09s3.67-.32,5.14-.96c1.47-.64,2.59-1.52,3.38-2.65.79-1.13,1.18-2.4,1.18-3.83-.03-1.63-.47-2.94-1.31-3.94-.85-.99-1.85-1.73-3-2.2Z"/>
  <path d="M141.2,0c-1.1,0-2.01.35-2.74,1.04-.73.7-1.09,1.56-1.09,2.6s.36,1.91,1.09,2.6c.73.7,1.64,1.05,2.74,1.05s2.01-.35,2.74-1.05c.73-.7,1.09-1.56,1.09-2.6s-.36-1.91-1.09-2.6c-.73-.7-1.64-1.04-2.74-1.04Z"/>
  <rect x="138.04" y="10.23" width="6.23" height="24.64"/>
  <path d="M156.99,4.14h-6.27v6.09h-2.94v5.12h2.94v11.88c0,5.1,2.62,7.65,7.87,7.65h3.91v-5.25h-2.89c-.95,0-1.62-.18-2.02-.56-.4-.37-.6-.97-.6-1.8v-11.92h5.52v-5.12h-5.52v-6.09Z"/>
  <polygon points="176.83 27.45 170.47 10.23 163.48 10.23 173.36 34.25 168.02 46.53 174.65 46.53 189.91 10.23 183.28 10.23 176.83 27.45"/>
  <path d="M201.94,10.3c1.41-.85,3.02-1.27,4.83-1.27,1.69,0,3.18.37,4.47,1.11.84.48,1.54,1.13,2.13,1.92l4.44-4.44c-.57-.56-1.2-1.07-1.88-1.53-2.61-1.78-5.65-2.67-9.12-2.67-2.97,0-5.64.67-8.03,2.02-2.39,1.35-4.27,3.23-5.65,5.65-1.38,2.42-2.07,5.15-2.07,8.21s.69,5.78,2.07,8.18c1.38,2.4,3.26,4.28,5.65,5.63,2.39,1.35,5.06,2.02,8.03,2.02,3.5,0,6.55-.88,9.14-2.65.52-.35,1-.75,1.46-1.16l-4.39-4.39c-.52.6-1.11,1.1-1.79,1.5-1.29.76-2.78,1.13-4.47,1.13-1.81,0-3.42-.42-4.83-1.27-1.41-.84-2.51-2.05-3.29-3.6-.79-1.56-1.18-3.36-1.18-5.4s.39-3.88,1.18-5.43c.79-1.54,1.88-2.74,3.29-3.58Z"/>
  <path d="M237.11,11.41c-1.93-1.05-4.08-1.58-6.45-1.58s-4.52.53-6.45,1.58c-1.93,1.05-3.45,2.54-4.56,4.47-1.11,1.93-1.67,4.15-1.67,6.67s.54,4.75,1.62,6.67c1.08,1.93,2.57,3.42,4.47,4.47,1.9,1.05,4.03,1.58,6.4,1.58s4.57-.53,6.52-1.58c1.94-1.05,3.48-2.54,4.63-4.47,1.14-1.93,1.71-4.15,1.71-6.67s-.56-4.74-1.67-6.67c-1.11-1.93-2.63-3.42-4.56-4.47ZM236.04,26.56c-.59,1.1-1.39,1.92-2.38,2.47-.99.55-2.05.82-3.18.82-1.78,0-3.25-.63-4.43-1.89-1.17-1.26-1.76-3.06-1.76-5.4s.6-4.14,1.8-5.4c1.2-1.26,2.69-1.89,4.47-1.89s3.28.63,4.52,1.89c1.23,1.26,1.85,3.06,1.85,5.4,0,1.57-.3,2.91-.89,4Z"/>
  <path d="M254.23,9.21c0-1.39.3-2.36.89-2.89.59-.53,1.65-.79,3.16-.76V.31c-3.47-.09-6.06.58-7.78,2-1.72,1.42-2.58,3.65-2.58,6.67v1.25h-2.8v5.12h2.8v19.53h6.32V15.35h4.31v-5.12h-4.31v-1.02Z"/>
  <path d="M268.91,9.21c0-1.39.3-2.36.89-2.89.59-.53,1.65-.79,3.16-.76V.31c-3.47-.09-6.06.58-7.78,2-1.72,1.42-2.58,3.65-2.58,6.67v1.25h-2.8v5.12h2.8v19.53h6.32V15.35h4.31v-5.12h-4.31v-1.02Z"/>
  <path d="M293.66,11.34c-1.85-1.01-3.95-1.51-6.29-1.51s-4.58.52-6.45,1.56c-1.87,1.04-3.32,2.52-4.36,4.45-1.04,1.93-1.56,4.17-1.56,6.72s.53,4.75,1.58,6.67c1.05,1.93,2.52,3.42,4.4,4.47,1.88,1.05,4.01,1.58,6.38,1.58,2.94,0,5.41-.76,7.43-2.29,2.02-1.53,3.38-3.48,4.09-5.85h-6.72c-.98,1.99-2.63,2.98-4.94,2.98-1.6,0-2.95-.5-4.05-1.51-1.1-1.01-1.72-2.4-1.87-4.18h18.02c.12-.71.18-1.51.18-2.4,0-2.4-.51-4.53-1.54-6.38-1.02-1.85-2.46-3.28-4.31-4.29ZM281.37,20.24c.24-1.66.88-2.96,1.93-3.89,1.05-.93,2.35-1.4,3.89-1.4,1.63,0,3.01.48,4.14,1.45,1.13.96,1.7,2.25,1.73,3.85h-11.7Z"/>
  <path d="M326.29,22.02c0-2.4-.51-4.53-1.54-6.38-1.02-1.85-2.46-3.28-4.31-4.29-1.85-1.01-3.95-1.51-6.29-1.51s-4.58.52-6.45,1.56c-1.87,1.04-3.32,2.52-4.36,4.45-1.04,1.93-1.56,4.17-1.56,6.72s.53,4.75,1.58,6.67c1.05,1.93,2.52,3.42,4.4,4.47,1.88,1.05,4.01,1.58,6.38,1.58,2.94,0,5.41-.76,7.43-2.29,2.02-1.53,3.38-3.48,4.09-5.85h-6.72c-.98,1.99-2.63,2.98-4.94,2.98-1.6,0-2.95-.5-4.05-1.51-1.1-1.01-1.72-2.4-1.87-4.18h18.02c.12-.71.18-1.51.18-2.4ZM308.14,20.24c.24-1.66.88-2.96,1.93-3.89,1.05-.93,2.35-1.4,3.89-1.4,1.63,0,3.01.48,4.14,1.45,1.13.96,1.7,2.25,1.73,3.85h-11.7Z"/>
</svg>