<?xml version="1.0" encoding="UTF-8"?>
<svg id="Layer_1" xmlns="http://www.w3.org/2000/svg" version="1.1" viewBox="0 0 100 100">
  <!-- Generator: Adobe Illustrator 29.8.2, SVG Export Plug-In . SVG Version: 2.1.1 Build 3)  -->
  <defs>
    <style>
      .st0 {
        fill: #fff;
      }

      .st1 {
        fill: #231f20;
      }
    </style>
  </defs>
  <path class="st1" d="M81.71,62.71c-3.25,3.25-7.75,5.26-12.71,5.26-9.93,0-17.97-8.05-17.97-17.97s8.05-17.97,17.97-17.97c4.96,0,9.46,2.01,12.71,5.26l18.1-18.1c-7.89-7.89-18.79-12.78-30.81-12.78-24.03,0-43.59,19.55-43.59,43.59s19.55,43.59,43.59,43.59c12.02,0,22.91-4.89,30.81-12.78l-18.1-18.1Z"/>
  <path class="st0" d="M56.29,62.71c-3.25,3.25-7.75,5.26-12.71,5.26-9.93,0-17.97-8.05-17.97-17.97s8.05-17.97,17.97-17.97c4.96,0,9.46,2.01,12.71,5.26l18.1-18.1c-7.89-7.89-18.79-12.78-30.81-12.78C19.55,6.41,0,25.97,0,50s19.55,43.59,43.59,43.59c12.02,0,22.91-4.89,30.81-12.78l-18.1-18.1Z"/>
</svg>